<?xml version="1.0" encoding="utf-8"?>
<!-- Generator: Adobe Illustrator 16.0.0, SVG Export Plug-In . SVG Version: 6.00 Build 0)  -->
<!DOCTYPE svg PUBLIC "-//W3C//DTD SVG 1.1//EN" "http://www.w3.org/Graphics/SVG/1.1/DTD/svg11.dtd">
<svg version="1.1" id="Layer_1" xmlns="http://www.w3.org/2000/svg" xmlns:xlink="http://www.w3.org/1999/xlink" x="0px" y="0px"
	 width="1568px" height="1400px" viewBox="0 0 1568 1400" enable-background="new 0 0 1568 1400" xml:space="preserve">
<g>
	<g>
		<rect x="0" fill="#FFFFFF" width="1568" height="1400"/>
	</g>
	<path fill="#DBFAFF" d="M395.7,830.5c0,50.7,41.1,91.7,91.7,91.7h753.9c50.7,0,91.7-41.1,91.7-91.7V221.4
		c0-50.7-41.1-91.7-91.7-91.7H487.5c-50.7,0-91.7,41.1-91.7,91.7V830.5z"/>
	<path fill="#54C7E8" d="M389.9,589.5h166.2c-0.1-3-0.2-5.9-0.2-8.9c0-172.2,139.6-311.8,311.8-311.8
		c172.2,0,311.8,139.6,311.8,311.8c0,3.2-0.1,6.4-0.2,9.6c99,8.3,176.8,91.3,176.8,192.5v313.5H196.7V782.8
		C196.7,676,283.2,589.5,389.9,589.5z"/>
	<path fill="#157D4F" d="M414.6,837.6c-26.9,0-50.7-13.7-64.6-34.5c-12.1,8.1-26.7,12.9-42.4,12.9c-37,0-67.9-26.3-74.9-61.3
		c-0.9,0-1.8,0.1-2.8,0.1c-42.9,0-77.7-34.8-77.7-77.7c0-28.8,15.7-53.8,38.9-67.2c-10.8-15.6-17.2-34.6-17.2-55.1
		c0-53.5,43.3-96.8,96.8-96.8c13.9,0,27.1,3,39.1,8.3c-0.5-2.7-0.8-5.4-0.8-8.3c0-23.2,18.8-42,42-42c12.4,0,23.5,5.4,31.2,14
		c10.9-25.5,36.2-43.3,65.6-43.3c38.3,0,69.4,30.2,71.2,68.1c38.6,15.9,65.9,53.5,66.9,97.6c22.1,13.5,37,37.8,37,65.7
		c0,22.8-10,43.2-25.7,57.3c8.2,12.6,13.1,27.7,13.1,43.9c0,44.3-35.9,80.3-80.3,80.3c-15.7,0-30.2-4.6-42.6-12.3
		C476.3,816.6,448,837.6,414.6,837.6z"/>
	<path fill="#6A4B00" d="M266.9,688.5l10.9,2.8l8.3,15.1c22.6,50.1,61.8,70.9,61.8,70.9c4.1,0,0.8-7.5,0.8-7.5
		c-9.8-18.1-9.8-41.5-9.8-41.5l6,1.9c3.4,27.5,16.2,42.6,16.2,42.6c8.7-39.2,7.9-50.9,7.9-50.9l-0.7-32.4l10.2,4.5l15.8-0.4l-3.8,46
		c20-32.4,51.3-63.7,51.3-63.7c10.2,0,4.9,6.8,4.9,6.8c-49,70.1-56.5,109-56.5,109l1.1,35.3c16.6-8.1,65.3-36.2,84.7-95.5h6.4
		c0,0-3.1,33.1-34.3,70.1c0,0-25.7,34.5-56.1,46.3l2.7,181.7c10.9,4.5,9.4,14,9.4,14l16,2.6v6.8h-42.7h-54.8v-7.1l20.2-5.4
		c0-10.7,11.8-11.9,11.8-11.9l8.5-224.1c-29.4-18.7-55.4-43.5-55.4-43.5C284.5,738.3,266.9,688.5,266.9,688.5z"/>
	<path fill="#126942" d="M496.4,733.5c0,4.2-3.4,7.7-7.7,7.7H460c-4.2,0-7.7-3.4-7.7-7.7l0,0c0-4.2,3.4-7.7,7.7-7.7h28.8
		C493,725.8,496.4,729.2,496.4,733.5L496.4,733.5z"/>
	<g>
		<polygon fill="#3C3B3D" points="1468.8,1186.1 77.9,1186.1 77.9,1192.8 1468.8,1198.7 		"/>
		<polygon fill="#4B4A4D" points="77.9,1192.8 77.9,1294.6 1468.8,1294.6 1468.8,1198.7 		"/>
	</g>
	<path fill="#126942" d="M376.1,494.5c0-11.1,9-20.1,20.1-20.1c3.8,0,7.3,1.1,10.3,2.9c5.4-19.3,23.1-33.5,44.1-33.5
		c25.3,0,45.9,20.5,45.9,45.9c0,25.3-20.5,45.9-45.9,45.9c-6,0-11.8-1.2-17-3.3c-3.9,5.5-10.2,9-17.4,9c-11.8,0-21.3-9.5-21.3-21.3
		c0-1.9,0.3-3.7,0.8-5.5C384.8,514.3,376.1,505.4,376.1,494.5z"/>
	<path fill="#126942" d="M468,625.8C468.1,625.8,468.1,625.8,468,625.8c1-28.1,24-50.6,52.3-50.6c28.9,0,52.3,23.4,52.3,52.3
		c0,28.9-23.4,52.3-52.3,52.3c-13.8,0-26.3-5.4-35.6-14.1c-4.3,4.3-10.2,7-16.7,7c-13,0-23.5-10.5-23.5-23.5S455.1,625.8,468,625.8z
		"/>
	<path fill="#126942" d="M266.8,612.7c-1-4.2-1.6-8.6-1.6-13.2c0-31.1,25.2-56.4,56.4-56.4c22.7,0,42.1,13.4,51.1,32.7
		c0.7,0,1.3-0.2,2-0.2c22.2,0,40.1,18,40.1,40.1s-18,40.1-40.1,40.1c-9,0-17.3-3.1-24-8.1c-8.5,5.1-18.4,8.1-29.1,8.1
		c-9.1,0-17.7-2.2-25.3-6c-4.1,10.1-13.9,17.2-25.4,17.2c-15.1,0-27.4-12.3-27.4-27.4C243.6,626,253.7,614.7,266.8,612.7z"/>
	<path fill="#00A485" d="M957.3,508.1c-13.3,12.1-24.5,27-32.5,44.4c-25.7,55.7-10.9,119.7,32,159.1c-14.3,45.6,7,95.8,51.6,116.4
		c34.7,16,73.9,9.5,101.5-13.2c12.2,16,28.4,29.4,48,38.5c52.5,24.2,113,9.6,149.2-31.9c42,18.4,91.2-0.1,110.4-42
		c10.8-23.4,9.9-49.1-0.1-70.8c33.2-4.6,63.4-25.4,78.5-58.1c23.5-51,1.2-111.3-49.8-134.8c-8.6-4-17.6-6.5-26.5-8
		c11.3-43.5-9.7-90.2-52-109.7c-30.1-13.9-63.7-10.6-89.8,5.8c-8.7-22.6-25.8-42-49.6-52.9c-45.7-21.1-99.4-3.3-123.9,39.6
		c-0.1-0.1-0.3-0.1-0.4-0.2c-52.7-24.3-115.1-1.2-139.4,51.5C954.4,463.3,952.5,486.5,957.3,508.1z"/>
	<path fill="#6A4B00" d="M1295.2,747c0,0-20,56.8-46.5,82.7c0,0-29.7,28.4-63.3,49.7l9.7,145.3c0,0,13.4,1.3,13.4,13.6l23.1,6.1v8.1
		H1169h-48.8v-7.8l18.3-3c0,0-1.7-10.8,10.8-16l5.2-160.9c0,0-8.6-44.4-64.6-124.5c0,0-6-7.8,5.6-7.8c0,0,35.7,35.7,58.6,72.8
		l-4.3-52.5l18.1,0.4l11.6-5.2l-0.9,37c0,0-0.9,13.3,9,58.1c0,0,14.6-17.2,18.5-48.6l6.9-2.1c0,0,0,26.7-11.2,47.4
		c0,0-3.9,8.6,0.9,8.6c0,0,44.8-23.7,70.6-80.9l9.5-17.2L1295.2,747z"/>
	<path fill="#009478" d="M1171.3,559.6c0-33.3,27-60.3,60.3-60.3c5.3,0,10.4,0.8,15.3,2c4.5-32.3,32.1-57.2,65.6-57.2
		c36.6,0,66.3,29.7,66.3,66.3c0,8.9-1.8,17.3-4.9,25c0.5,0,1-0.1,1.5-0.1c34.7,0,62.9,28.1,62.9,62.8c0,34.7-28.1,62.8-62.9,62.8
		c-19,0-36-8.5-47.5-21.8c-13.5,13.9-32.3,22.7-53.2,22.7c-31.8,0-58.9-20.1-69.4-48.3C1185.2,604,1171.3,583.4,1171.3,559.6z"/>
	<path fill="#009478" d="M981.8,592.1c-1.7-3.9-2.8-8.3-2.8-12.9c0-17.6,14.2-31.8,31.8-31.8c14.4,0,26.5,9.7,30.4,22.9
		c7.4-4.1,15.7-6.6,24.8-6.6c28.5,0,51.7,23.1,51.7,51.7c0,28.5-23.1,51.7-51.7,51.7c-12.7,0-24.1-4.7-33.1-12.3
		c-7.6,9-18.8,14.9-31.5,14.9c-22.8,0-41.3-18.5-41.3-41.3C960,612.6,968.9,599.1,981.8,592.1z"/>
	<g>
		<g>
			<polygon fill="#005B8A" points="597.3,448 491,572.5 491,559.5 594.8,435.7 698.6,559.5 723.1,559.5 723.1,570.4 703.8,570.4 			
				"/>
			<polygon fill="#006A9E" points="597.3,448 703.8,570.4 723.1,570.4 723.1,988.8 698.6,988.8 491,988.8 491,572.5 			"/>
		</g>
		<g>
			<polygon fill="#0070A8" points="723.1,559.2 762.3,559.2 826,559.2 851.2,559.2 1019.6,559.2 1058.2,559.2 1058.2,570 723.1,570 
							"/>
			<polygon fill="#0082C1" points="1058.2,570 1058.2,988.5 851.2,988.5 826,988.5 723.1,988.5 723.1,570 			"/>
		</g>
		<rect x="827.7" y="794.1" fill="#414042" width="126" height="134.3"/>
		<rect x="837.1" y="803.6" fill="#FFFFFF" width="107.1" height="115.3"/>
		<g>
			<polygon fill="#A0DDFF" points="938.1,875.9 843.3,893 843.3,878.6 938.1,861.5 			"/>
			<polygon fill="#87D4FF" points="938.1,893.7 843.3,893.7 843.3,893 938.1,875.9 			"/>
			<polygon fill="#A0DDFF" points="843.3,834.4 938.1,817.2 938.1,831.6 843.3,848.7 			"/>
			<polygon fill="#87D4FF" points="938.1,831.6 938.1,861.5 843.3,878.6 843.3,848.7 			"/>
			<polygon fill="#87D4FF" points="843.3,809.7 938.1,809.7 938.1,817.2 843.3,834.4 			"/>
		</g>
		<polygon fill="#D65950" points="491,559.5 466.4,559.5 582.5,421 594.8,435.7 		"/>
		<polygon fill="#FF6960" points="607.1,421 903.5,421 942.1,421 967.3,421 1083.4,559.5 1058.2,559.5 1019.6,559.5 851.2,559.5 
			826,559.5 762.3,559.5 723.1,559.5 698.6,559.5 594.8,435.7 582.5,421 		"/>
		<rect x="766.2" y="608.7" fill="#414042" width="248.9" height="147.8"/>
		<rect x="837.1" y="848.7" fill="#FFFFFF" width="107.1" height="6.1"/>
		<rect x="887.6" y="806.3" fill="#FFFFFF" width="6.1" height="99"/>
		<rect x="933.7" y="809.7" opacity="0.1" fill="#414042" width="4.3" height="38.9"/>
		<rect x="933.7" y="854.8" opacity="0.1" fill="#414042" width="4.3" height="38.9"/>
		<rect x="884.2" y="809.7" opacity="0.1" fill="#414042" width="3.4" height="38.9"/>
		<rect x="884.2" y="854.8" opacity="0.1" fill="#414042" width="3.4" height="38.9"/>
		<rect x="554" y="794.1" fill="#414042" width="106.1" height="134.3"/>
		<rect x="562" y="803.6" fill="#FFFFFF" width="90.1" height="115.3"/>
		<g>
			<polygon fill="#A0DDFF" points="567.2,875.9 647,893 647,878.6 567.2,861.5 			"/>
			<polygon fill="#87D4FF" points="567.2,893.7 647,893.7 647,893 567.2,875.9 			"/>
			<polygon fill="#A0DDFF" points="647,834.4 567.2,817.2 567.2,831.6 647,848.7 			"/>
			<polygon fill="#87D4FF" points="567.2,831.6 567.2,861.5 647,878.6 647,848.7 			"/>
			<polygon fill="#87D4FF" points="647,809.7 567.2,809.7 567.2,817.2 647,834.4 			"/>
		</g>
		<rect x="562" y="848.7" fill="#FFFFFF" width="90.1" height="6.1"/>
		<rect x="604.5" y="806.3" fill="#FFFFFF" width="5.2" height="99"/>
		<rect x="567.2" y="809.7" opacity="0.1" fill="#414042" width="3.6" height="38.9"/>
		<rect x="567.2" y="854.8" opacity="0.1" fill="#414042" width="3.6" height="38.9"/>
		<rect x="609.6" y="809.7" opacity="0.1" fill="#414042" width="2.9" height="38.9"/>
		<rect x="609.6" y="854.8" opacity="0.1" fill="#414042" width="2.9" height="38.9"/>
		<rect x="554" y="608.7" fill="#414042" width="106.1" height="134.3"/>
		<rect x="562" y="618.1" fill="#FFFFFF" width="90.1" height="115.3"/>
		<g>
			<polygon fill="#A0DDFF" points="567.2,690.4 647,707.5 647,693.2 567.2,676 			"/>
			<polygon fill="#87D4FF" points="567.2,708.2 647,708.2 647,707.5 567.2,690.4 			"/>
			<polygon fill="#A0DDFF" points="647,648.9 567.2,631.8 567.2,646.1 647,663.2 			"/>
			<polygon fill="#87D4FF" points="567.2,646.1 567.2,676 647,693.2 647,663.2 			"/>
			<polygon fill="#87D4FF" points="647,624.3 567.2,624.3 567.2,631.8 647,648.9 			"/>
		</g>
		<rect x="562" y="663.2" fill="#FFFFFF" width="90.1" height="6.1"/>
		<rect x="604.5" y="620.8" fill="#FFFFFF" width="5.2" height="99"/>
		<rect x="567.2" y="624.3" opacity="0.1" fill="#414042" width="3.6" height="38.9"/>
		<rect x="567.2" y="669.3" opacity="0.1" fill="#414042" width="3.6" height="38.9"/>
		<rect x="609.6" y="624.3" opacity="0.1" fill="#414042" width="2.9" height="38.9"/>
		<rect x="609.6" y="669.3" opacity="0.1" fill="#414042" width="2.9" height="38.9"/>
		<g>
			<rect x="887.5" y="620.2" fill="#FFFFFF" width="116.8" height="125.9"/>
			<g>
				<polygon fill="#A0DDFF" points="997.6,699 894.1,717.7 894.1,702.1 997.6,683.4 				"/>
				<polygon fill="#87D4FF" points="997.6,718.5 894.1,718.5 894.1,717.7 997.6,699 				"/>
				<polygon fill="#A0DDFF" points="894.1,653.7 997.6,635 997.6,650.7 894.1,669.4 				"/>
				<polygon fill="#87D4FF" points="997.6,650.7 997.6,683.4 894.1,702.1 894.1,669.4 				"/>
				<polygon fill="#87D4FF" points="894.1,626.8 997.6,626.8 997.6,635 894.1,653.7 				"/>
			</g>
			<rect x="887.5" y="669.3" fill="#FFFFFF" width="116.8" height="6.7"/>
			<rect x="942.5" y="623.1" fill="#FFFFFF" width="6.7" height="108"/>
			<rect x="992.9" y="626.8" opacity="0.1" fill="#414042" width="4.7" height="42.5"/>
			<rect x="992.9" y="676" opacity="0.1" fill="#414042" width="4.7" height="42.5"/>
			<rect x="938.8" y="626.8" opacity="0.1" fill="#414042" width="3.7" height="42.5"/>
			<rect x="938.8" y="676" opacity="0.1" fill="#414042" width="3.7" height="42.5"/>
			<rect x="777.3" y="620.2" fill="#FFFFFF" width="116.8" height="125.9"/>
			<g>
				<polygon fill="#A0DDFF" points="887.5,699 784,717.7 784,702.1 887.5,683.4 				"/>
				<polygon fill="#87D4FF" points="887.5,718.5 784,718.5 784,717.7 887.5,699 				"/>
				<polygon fill="#A0DDFF" points="784,653.7 887.5,635 887.5,650.7 784,669.4 				"/>
				<polygon fill="#87D4FF" points="887.5,650.7 887.5,683.4 784,702.1 784,669.4 				"/>
				<polygon fill="#87D4FF" points="784,626.8 887.5,626.8 887.5,635 784,653.7 				"/>
			</g>
			<rect x="777.3" y="669.3" fill="#FFFFFF" width="116.8" height="6.7"/>
			<rect x="832.4" y="623.1" fill="#FFFFFF" width="6.7" height="108"/>
			<rect x="882.7" y="626.8" opacity="0.1" fill="#414042" width="4.7" height="42.5"/>
			<rect x="882.7" y="676" opacity="0.1" fill="#414042" width="4.7" height="42.5"/>
			<rect x="828.7" y="626.8" opacity="0.1" fill="#414042" width="3.7" height="42.5"/>
			<rect x="828.7" y="676" opacity="0.1" fill="#414042" width="3.7" height="42.5"/>
		</g>
		<rect x="711.9" y="988.8" fill="#4B4A4D" width="358.3" height="59.9"/>
		<rect x="481.7" y="988.8" fill="#3C3B3D" width="230.3" height="59.9"/>
		<rect x="767.7" y="390.2" fill="#FF6960" width="68.6" height="15.3"/>
		<rect x="767.7" y="359.7" fill="#FF6960" width="68.6" height="15.3"/>
		<rect x="771.3" y="375" fill="#EB6158" width="61.4" height="15.3"/>
		<rect x="771.3" y="405.5" fill="#EB6158" width="61.4" height="15.3"/>
		<rect x="771.3" y="344.4" fill="#EB6158" width="61.4" height="15.3"/>
		<rect x="760.7" y="329.4" fill="#414042" width="82.6" height="15"/>
		<g>
			<rect x="762" y="756.5" fill="#006DA3" width="253.1" height="4.2"/>
			<rect x="762" y="608.7" fill="#006DA3" width="4.2" height="147.7"/>
		</g>
	</g>
	<g>
		<g>
			<polygon fill="#B2D847" points="207.6,1048.7 777.3,1048.7 1347,1048.7 1407,1067.5 147.6,1067.5 			"/>
			<polygon fill="#A5C942" points="147.6,1067.5 1407,1067.5 1457.1,1134.3 777.3,1134.3 97.5,1134.3 			"/>
		</g>
		<g>
			<path fill="#AB8546" d="M52.4,1160.6c0-14.1,11.4-25.5,25.5-25.5h1398.8c14.1,0,25.5,11.4,25.5,25.5c0,3.4-0.7,6.6-1.9,9.6H54.3
				C53.1,1167.2,52.4,1164,52.4,1160.6z"/>
			<path fill="#9C7940" d="M1500.3,1170.2c-3.8,9.3-12.9,15.9-23.6,15.9H77.9c-10.7,0-19.8-6.6-23.6-15.9H1500.3z"/>
		</g>
	</g>
	<g>
		<rect x="242.1" y="925" fill="#EBEBEB" width="203.6" height="17.9"/>
		<rect x="429.5" y="925" fill="#D6D6D6" width="4" height="17.9"/>
		<rect x="375.3" y="925" fill="#D6D6D6" width="4" height="17.9"/>
		<rect x="321.1" y="925" fill="#D6D6D6" width="4" height="17.9"/>
		<rect x="266.9" y="925" fill="#D6D6D6" width="4" height="17.9"/>
		<rect x="242.1" y="1007.1" fill="#EBEBEB" width="203.6" height="17.9"/>
		<rect x="429.5" y="1007.1" fill="#D6D6D6" width="4" height="17.9"/>
		<rect x="375.3" y="1007.1" fill="#D6D6D6" width="4" height="17.9"/>
		<rect x="321.1" y="1007.1" fill="#D6D6D6" width="4" height="17.9"/>
		<rect x="266.9" y="1007.1" fill="#D6D6D6" width="4" height="17.9"/>
		<g>
			<polygon fill="#EBEBEB" points="449.9,922.2 449.9,1048.9 433.4,1048.9 433.4,900.2 434.2,899.5 			"/>
			<polygon fill="#FFFFFF" points="434.2,899.5 449.9,884.8 466.4,900.2 466.4,1048.9 449.9,1048.9 449.9,922.2 			"/>
		</g>
		<g>
			<polygon fill="#EBEBEB" points="395.7,922.2 395.7,1048.9 379.3,1048.9 379.3,900.2 380,899.5 			"/>
			<polygon fill="#FFFFFF" points="380,899.5 395.7,884.8 412.2,900.2 412.2,1048.9 395.7,1048.9 395.7,922.2 			"/>
		</g>
		<g>
			<polygon fill="#EBEBEB" points="341.5,922.2 341.5,1048.9 325.1,1048.9 325.1,900.2 325.9,899.5 			"/>
			<polygon fill="#FFFFFF" points="325.9,899.5 341.5,884.8 358,900.2 358,1048.9 341.5,1048.9 341.5,922.2 			"/>
		</g>
		<g>
			<polygon fill="#EBEBEB" points="287.4,922.2 287.4,1048.9 270.9,1048.9 270.9,900.2 271.7,899.5 			"/>
			<polygon fill="#FFFFFF" points="271.7,899.5 287.4,884.8 303.8,900.2 303.8,1048.9 287.4,1048.9 287.4,922.2 			"/>
		</g>
		<g>
			<polygon fill="#EBEBEB" points="233.2,922.2 233.2,1048.9 216.7,1048.9 216.7,900.2 217.5,899.5 			"/>
			<polygon fill="#FFFFFF" points="217.5,899.5 233.2,884.8 249.6,900.2 249.6,1048.9 233.2,1048.9 233.2,922.2 			"/>
		</g>
	</g>
	<g>
		<rect x="1108.7" y="925" fill="#EBEBEB" width="203.6" height="17.9"/>
		<rect x="1296.1" y="925" fill="#D6D6D6" width="4" height="17.9"/>
		<rect x="1241.9" y="925" fill="#D6D6D6" width="4" height="17.9"/>
		<rect x="1187.7" y="925" fill="#D6D6D6" width="4" height="17.9"/>
		<rect x="1133.6" y="925" fill="#D6D6D6" width="4" height="17.9"/>
		<rect x="1108.7" y="1007.1" fill="#EBEBEB" width="203.6" height="17.9"/>
		<rect x="1296.1" y="1007.1" fill="#D6D6D6" width="4" height="17.9"/>
		<rect x="1241.9" y="1007.1" fill="#D6D6D6" width="4" height="17.9"/>
		<rect x="1187.7" y="1007.1" fill="#D6D6D6" width="4" height="17.9"/>
		<rect x="1133.6" y="1007.1" fill="#D6D6D6" width="4" height="17.9"/>
		<g>
			<polygon fill="#EBEBEB" points="1316.6,922.2 1316.6,1048.9 1300.1,1048.9 1300.1,900.2 1300.9,899.5 			"/>
			<polygon fill="#FFFFFF" points="1300.9,899.5 1316.6,884.8 1333,900.2 1333,1048.9 1316.6,1048.9 1316.6,922.2 			"/>
		</g>
		<g>
			<polygon fill="#EBEBEB" points="1262.4,922.2 1262.4,1048.9 1245.9,1048.9 1245.9,900.2 1246.7,899.5 			"/>
			<polygon fill="#FFFFFF" points="1246.7,899.5 1262.4,884.8 1278.9,900.2 1278.9,1048.9 1262.4,1048.9 1262.4,922.2 			"/>
		</g>
		<g>
			<polygon fill="#EBEBEB" points="1208.2,922.2 1208.2,1048.9 1191.7,1048.9 1191.7,900.2 1192.5,899.5 			"/>
			<polygon fill="#FFFFFF" points="1192.5,899.5 1208.2,884.8 1224.7,900.2 1224.7,1048.9 1208.2,1048.9 1208.2,922.2 			"/>
		</g>
		<g>
			<polygon fill="#EBEBEB" points="1154,922.2 1154,1048.9 1137.5,1048.9 1137.5,900.2 1138.3,899.5 			"/>
			<polygon fill="#FFFFFF" points="1138.3,899.5 1154,884.8 1170.5,900.2 1170.5,1048.9 1154,1048.9 1154,922.2 			"/>
		</g>
		<g>
			<polygon fill="#EBEBEB" points="1099.8,922.2 1099.8,1048.9 1083.4,1048.9 1083.4,900.2 1084.1,899.5 			"/>
			<polygon fill="#FFFFFF" points="1084.1,899.5 1099.8,884.8 1116.3,900.2 1116.3,1048.9 1099.8,1048.9 1099.8,922.2 			"/>
		</g>
	</g>
	<path fill="#B2D847" d="M685.3,1100.3c0-6-4.9-10.8-10.8-10.8h-467c-6,0-10.8,4.8-10.8,10.8l0,0c0,6,4.9,10.8,10.8,10.8h467
		C680.5,1111.2,685.3,1106.3,685.3,1100.3L685.3,1100.3z"/>
	<path fill="#B2D847" d="M882.7,1100.3c0,6-4.9,10.8-10.8,10.8H771.5c-6,0-10.8-4.8-10.8-10.8l0,0c0-6,4.8-10.8,10.8-10.8h100.4
		C877.9,1089.5,882.7,1094.4,882.7,1100.3L882.7,1100.3z"/>
	<rect x="111.8" y="1233" fill="#FFFFFF" width="124.3" height="14.8"/>
	<rect x="283.9" y="1233" fill="#FFFFFF" width="124.3" height="14.8"/>
	<rect x="456" y="1233" fill="#FFFFFF" width="124.3" height="14.8"/>
	<rect x="628.1" y="1233" fill="#FFFFFF" width="124.3" height="14.8"/>
	<rect x="800.2" y="1233" fill="#FFFFFF" width="124.3" height="14.8"/>
	<rect x="972.4" y="1233" fill="#FFFFFF" width="124.3" height="14.8"/>
	<rect x="1144.5" y="1233" fill="#FFFFFF" width="124.3" height="14.8"/>
	<rect x="1316.6" y="1233" fill="#FFFFFF" width="124.3" height="14.8"/>
	<path fill="#54C7E8" d="M505.3,168.6c-36.3,0-68,19-86,47.6c-4.7-2.6-10-4.2-15.7-4.2c-18,0-32.6,14.6-32.6,32.6
		c0,1.9,0.3,3.6,0.5,5.4H270c-11.3,0-20.4,9.1-20.4,20.4s9.1,20.4,20.4,20.4h316.7c11.3,0,20.4-9.1,20.4-20.4
		C607.1,214.2,561.5,168.6,505.3,168.6z"/>
	<path fill="#54C7E8" d="M491,344.5c0,8.4-6.8,15.1-15.1,15.1H365.4c-8.4,0-15.1-6.8-15.1-15.1l0,0c0-8.4,6.8-15.1,15.1-15.1h110.4
		C484.2,329.4,491,336.2,491,344.5L491,344.5z"/>
	<path fill="#54C7E8" d="M1174.8,290.8c0,4.9-4,8.9-8.9,8.9h-64.8c-4.9,0-8.9-4-8.9-8.9l0,0c0-4.9,4-8.9,8.9-8.9h64.8
		C1170.9,281.9,1174.8,285.9,1174.8,290.8L1174.8,290.8z"/>
	<path fill="#54C7E8" d="M1245.1,223.4h-10c0-8.5-6.9-15.3-15.3-15.3c-0.6,0-1.1,0.1-1.6,0.2c-9.7-24.3-33.4-41.6-61.2-41.6
		c-24.4,0-45.7,13.3-57.1,33.1c-2.8-1-5.7-1.7-8.8-1.7c-14,0-25.3,11.3-25.3,25.3h-23c-8.5,0-15.3,6.9-15.3,15.3
		c0,8.5,6.9,15.3,15.3,15.3h202.3c8.5,0,15.3-6.9,15.3-15.3C1260.4,230.3,1253.5,223.4,1245.1,223.4z"/>
	<path fill="#009478" d="M1144.5,731.1c0,6.8-5.5,12.4-12.4,12.4h-46.3c-6.8,0-12.4-5.5-12.4-12.4l0,0c0-6.8,5.5-12.4,12.4-12.4
		h46.3C1139,718.7,1144.5,724.2,1144.5,731.1L1144.5,731.1z"/>
	<path fill="#126942" d="M293,693.2c0,4.2-3.4,7.7-7.7,7.7h-28.8c-4.2,0-7.7-3.4-7.7-7.7l0,0c0-4.2,3.4-7.7,7.7-7.7h28.8
		C289.5,685.5,293,688.9,293,693.2L293,693.2z"/>
	<path fill="#126942" d="M466.6,679.8c0,4.2-3.4,7.7-7.7,7.7h-28.8c-4.3,0-7.7-3.4-7.7-7.7l0,0c0-4.2,3.4-7.7,7.7-7.7H459
		C463.2,672.1,466.6,675.6,466.6,679.8L466.6,679.8z"/>
	<path fill="#126942" d="M359.5,731.1c0,4.2-3.4,7.7-7.7,7.7H323c-4.2,0-7.7-3.4-7.7-7.7l0,0c0-4.2,3.4-7.7,7.7-7.7h28.8
		C356.1,723.4,359.5,726.8,359.5,731.1L359.5,731.1z"/>
	<path fill="#126942" d="M417.9,693.2c0,6.8-5.5,12.4-12.4,12.4h-46.3c-6.8,0-12.4-5.5-12.4-12.4l0,0c0-6.8,5.5-12.4,12.4-12.4h46.3
		C412.3,680.8,417.9,686.4,417.9,693.2L417.9,693.2z"/>
	<path fill="#009478" d="M1324.8,748.3c0,6.8-5.5,12.4-12.4,12.4h-46.3c-6.8,0-12.4-5.5-12.4-12.4l0,0c0-6.8,5.5-12.4,12.4-12.4
		h46.3C1319.2,735.9,1324.8,741.5,1324.8,748.3L1324.8,748.3z"/>
	<path fill="#009478" d="M1223.7,792.3c0,2.9-2.4,5.3-5.3,5.3h-19.7c-2.9,0-5.3-2.4-5.3-5.3l0,0c0-2.9,2.3-5.3,5.3-5.3h19.7
		C1221.3,787,1223.7,789.4,1223.7,792.3L1223.7,792.3z"/>
	<path fill="#009478" d="M1224.7,742.9c0,9-7.3,16.4-16.3,16.4H1147c-9,0-16.4-7.3-16.4-16.4l0,0c0-9,7.3-16.4,16.4-16.4h61.3
		C1217.3,726.6,1224.7,733.9,1224.7,742.9L1224.7,742.9z"/>
</g>
</svg>
